<?xml version="1.0" standalone="no"?>
<!DOCTYPE svg PUBLIC "-//W3C//DTD SVG 20010904//EN"
 "http://www.w3.org/TR/2001/REC-SVG-20010904/DTD/svg10.dtd">
<svg version="1.0" xmlns="http://www.w3.org/2000/svg"
 width="500.000000pt" height="500.000000pt" viewBox="0 0 500.000000 500.000000"
 preserveAspectRatio="xMidYMid meet">
<metadata>
Created by potrace 1.14, written by Peter Selinger 2001-2017
</metadata>
<g transform="translate(0.000000,500.000000) scale(0.100000,-0.100000)"
fill="#000000" stroke="none">
<path d="M3670 4571 c-109 -35 -181 -95 -237 -196 -25 -45 -28 -59 -28 -150 0
-85 3 -106 23 -143 19 -35 75 -97 142 -156 71 -63 204 -81 362 -48 53 11 101
23 106 26 15 9 42 -51 48 -111 8 -70 -17 -206 -47 -265 -69 -136 -125 -191
-336 -330 -84 -56 -154 -109 -154 -117 -2 -16 -1 -67 0 -88 1 -6 10 -9 21 -6
15 4 20 0 20 -16 0 -34 21 -34 103 -2 214 85 356 178 491 322 124 132 213 305
245 479 16 86 8 287 -13 335 -10 22 -25 57 -34 78 -9 20 -19 37 -24 37 -4 0
-8 9 -8 21 0 11 -4 17 -10 14 -5 -3 -10 1 -10 9 0 9 -5 16 -11 16 -5 0 -7 5
-4 10 3 6 3 10 -2 10 -4 1 -26 24 -47 53 -44 59 -136 141 -196 174 -114 64
-282 83 -400 44z"/>
<path d="M629 3868 c-1 -2 -2 -169 -3 -371 l-1 -368 45 3 45 3 -1 132 -1 131
126 4 c135 4 179 18 228 70 77 82 73 248 -8 329 -54 54 -105 66 -281 68 -82 1
-149 1 -149 -1z m335 -98 c66 -33 92 -149 50 -221 -31 -54 -72 -69 -195 -69
l-105 0 0 156 0 156 110 -4 c70 -2 122 -9 140 -18z"/>
<path d="M1830 3500 l0 -370 43 0 42 0 0 370 0 370 -42 0 -43 0 0 -370z"/>
<path d="M2659 3863 c-1 -5 -2 -171 -3 -370 l-1 -363 44 0 c42 0 43 1 38 28
-2 15 -2 35 2 45 6 17 8 17 20 -5 7 -13 27 -34 44 -48 27 -22 41 -25 107 -25
57 0 82 5 105 20 86 56 128 144 128 267 -1 162 -99 277 -235 278 -62 0 -90
-12 -133 -57 l-35 -37 0 137 0 137 -40 0 c-22 0 -41 -3 -41 -7z m316 -272 c79
-45 107 -202 55 -306 -60 -119 -205 -121 -264 -3 -47 94 -24 263 41 305 51 34
115 35 168 4z"/>
<path d="M1390 3681 c-50 -15 -89 -42 -116 -76 -29 -39 -27 -46 23 -63 28 -9
33 -8 47 14 23 34 73 57 127 58 74 1 119 -41 119 -110 0 -31 -21 -40 -125 -53
-149 -19 -205 -49 -226 -121 -34 -112 53 -211 185 -211 60 0 102 17 141 58
l25 28 0 -38 c0 -36 1 -37 39 -37 22 0 41 5 43 13 2 6 4 101 3 209 -2 214 -8
244 -57 289 -47 43 -154 62 -228 40z m200 -328 c0 -27 -8 -64 -18 -83 -21 -43
-88 -80 -135 -75 -18 2 -40 4 -50 4 -32 2 -67 47 -67 85 0 46 29 72 94 85 70
14 149 28 164 30 8 1 12 -15 12 -46z"/>
<path d="M2186 3675 c-47 -16 -88 -48 -108 -83 l-18 -30 37 -15 c38 -15 38
-15 69 19 31 32 45 38 108 48 63 11 126 -40 126 -101 0 -39 -14 -48 -90 -57
-30 -4 -73 -10 -95 -13 -55 -7 -125 -43 -149 -75 -13 -19 -19 -43 -19 -80 0
-104 76 -172 191 -169 61 1 107 21 139 59 21 25 23 25 24 7 1 -11 0 -28 -1
-38 -1 -16 5 -18 42 -15 l43 3 1 200 c1 223 -7 268 -57 310 -53 44 -162 58
-243 30z m215 -302 c5 -113 -46 -174 -144 -176 -63 -2 -108 19 -121 54 -21 62
23 111 113 124 100 14 116 17 120 21 14 13 31 0 32 -23z"/>
<path d="M3288 3683 c-15 -4 -17 -30 -16 -279 l0 -274 43 0 44 0 -1 188 c-1
205 4 228 55 266 21 15 43 21 83 21 53 0 54 1 65 34 14 41 3 51 -59 51 -52 0
-92 -19 -125 -61 l-24 -31 2 41 c1 24 -3 41 -9 42 -6 0 -18 2 -26 3 -8 1 -23
1 -32 -1z"/>
<path d="M2015 2938 c-9 -23 -377 -1112 -382 -1130 -5 -17 7 -18 145 -18 l150
0 38 119 c25 81 42 120 53 123 9 2 99 3 201 3 l185 -1 38 -122 38 -122 150 0
150 0 -7 23 c-4 12 -91 272 -194 577 l-187 555 -187 3 c-144 2 -188 0 -191
-10z m235 -410 c23 -73 52 -166 65 -205 20 -65 21 -73 6 -74 -71 -4 -234 -3
-241 1 -4 3 3 37 15 75 13 39 42 130 65 203 22 72 43 132 45 132 2 0 22 -60
45 -132z"/>
<path d="M1649 2836 c-284 -98 -475 -202 -684 -371 -336 -273 -533 -599 -589
-978 -18 -115 -17 -319 0 -395 22 -97 26 -116 25 -135 0 -11 5 -15 12 -10 9 5
9 3 0 -8 -9 -11 -5 -33 21 -100 68 -182 187 -344 338 -462 204 -159 409 -228
637 -214 124 8 148 13 251 50 192 69 332 207 395 392 19 55 29 203 16 238 -5
12 -11 47 -14 77 -10 92 -19 122 -53 190 -63 127 -190 218 -369 265 -49 13
-248 14 -305 1 -186 -41 -252 -50 -298 -38 -82 22 -144 117 -136 212 8 109 47
248 96 345 104 208 247 334 673 591 72 43 137 85 145 93 19 19 18 152 -1 186
-4 6 -6 34 -5 63 1 41 -2 52 -14 52 -8 -1 -72 -21 -141 -44z"/>
<path d="M3238 2661 c-63 -20 -126 -74 -150 -126 -17 -38 -23 -23 -22 54 l0
72 -135 -3 -136 -3 -1 -592 c-1 -438 1 -593 10 -594 6 -1 68 -2 139 -3 l127
-1 0 234 0 234 38 -51 c55 -75 104 -97 217 -97 75 0 98 4 135 23 128 67 196
192 205 379 14 284 -114 470 -329 479 -39 2 -83 -1 -98 -5z m61 -230 c42 -30
64 -68 76 -133 30 -171 -44 -313 -158 -302 -101 9 -150 86 -150 234 0 91 19
147 65 190 43 40 120 45 167 11z"/>
<path d="M4127 2654 c-52 -18 -92 -52 -128 -105 l-29 -44 0 78 0 77 -138 0
-137 0 0 -597 0 -597 137 -1 138 -1 2 236 c2 187 5 230 15 210 33 -72 139
-132 232 -131 149 0 262 85 318 239 29 77 40 247 22 342 -35 182 -160 301
-324 306 -39 1 -87 -4 -108 -12z m76 -222 c88 -52 110 -280 37 -382 -22 -31
-93 -62 -125 -56 -11 3 -25 5 -32 5 -28 2 -82 64 -98 112 -19 56 -21 159 -5
219 28 105 135 154 223 102z"/>
</g>
</svg>
